<?xml version="1.0" encoding="UTF-8"?>
<!DOCTYPE svg PUBLIC "-//W3C//DTD SVG 1.1//EN" "http://www.w3.org/Graphics/SVG/1.1/DTD/svg11.dtd">
<svg xmlns="http://www.w3.org/2000/svg" version="1.1" width="2712px" height="2048px" style="shape-rendering:geometricPrecision; text-rendering:geometricPrecision; image-rendering:optimizeQuality; fill-rule:evenodd; clip-rule:evenodd" xmlns:xlink="http://www.w3.org/1999/xlink">
<g><path style="opacity:0.042" fill="#323331" d="M 1323.5,26.5 C 1326.86,27.2032 1327.19,28.5365 1324.5,30.5C 1322.36,29.5629 1322.02,28.2296 1323.5,26.5 Z"/></g>
<g><path style="opacity:0.995" fill="#333332" d="M 1870.5,285.5 C 1871.93,282.039 1873.1,278.372 1874,274.5C 1875.52,271.994 1877.68,271.16 1880.5,272C 1881.17,281 1881.83,290 1882.5,299C 1882.17,299.333 1881.83,299.667 1881.5,300C 1898.3,325.671 1921.96,335.505 1952.5,329.5C 1967.05,326.429 1981.05,321.762 1994.5,315.5C 2005.17,309.5 2015.83,303.5 2026.5,297.5C 2035.17,291.5 2043.83,285.5 2052.5,279.5C 2050.73,278.18 2050.4,276.68 2051.5,275C 2054.17,274.667 2054.83,275.667 2053.5,278C 2054,278.167 2054.5,278.333 2055,278.5C 2064.41,270.254 2074.24,262.588 2084.5,255.5C 2081.83,250.833 2082.83,249.833 2087.5,252.5C 2133.95,217.096 2182.95,185.429 2234.5,157.5C 2253.14,148.843 2272.47,142.176 2292.5,137.5C 2307.83,136.167 2323.17,136.167 2338.5,137.5C 2353.76,141.252 2368.42,146.585 2382.5,153.5C 2389.55,159.549 2396.88,165.216 2404.5,170.5C 2429.38,155.391 2455.38,142.391 2482.5,131.5C 2494.49,127.892 2506.49,124.392 2518.5,121C 2533.55,120.066 2548.55,120.4 2563.5,122C 2577.33,128.33 2587.33,138.497 2593.5,152.5C 2600.51,171.189 2604.01,190.523 2604,210.5C 2604.82,232.031 2604.65,253.531 2603.5,275C 2603.17,275.5 2602.83,276 2602.5,276.5C 2593.41,267.956 2582.74,262.622 2570.5,260.5C 2550.58,263.462 2532.92,271.295 2517.5,284C 2504.68,297.319 2491.68,310.486 2478.5,323.5C 2465.34,339.977 2453.01,356.977 2441.5,374.5C 2421.42,406.65 2404.76,440.65 2391.5,476.5C 2366.76,552.844 2364.09,630.178 2383.5,708.5C 2391.77,741.32 2402.44,773.32 2415.5,804.5C 2431.62,838.746 2448.29,872.746 2465.5,906.5C 2480.8,939.71 2490.8,974.377 2495.5,1010.5C 2498.61,1049.59 2495.95,1088.26 2487.5,1126.5C 2483.3,1140.93 2478.8,1155.27 2474,1169.5C 2471.05,1175.9 2467.22,1181.73 2462.5,1187C 2462.17,1187.17 2461.83,1187.33 2461.5,1187.5C 2460.83,1175.17 2460.17,1162.83 2459.5,1150.5C 2455.82,1140.09 2453.15,1129.43 2451.5,1118.5C 2445.18,1104.52 2437.85,1091.19 2429.5,1078.5C 2424.17,1073.17 2418.83,1067.83 2413.5,1062.5C 2412.15,1061.05 2410.48,1060.38 2408.5,1060.5C 2411.78,1081.77 2414.78,1103.1 2417.5,1124.5C 2420.28,1179.48 2414.28,1233.48 2399.5,1286.5C 2393.49,1305.86 2387.49,1325.19 2381.5,1344.5C 2366.89,1377.84 2357.05,1412.51 2352,1448.5C 2351.33,1460.17 2351.33,1471.83 2352,1483.5C 2353.26,1491.43 2355.42,1499.1 2358.5,1506.5C 2357.08,1511.08 2354.08,1512.58 2349.5,1511C 2340.13,1500.72 2328.63,1496.56 2315,1498.5C 2305.13,1502.77 2296.46,1508.77 2289,1516.5C 2280.12,1527.69 2272.12,1539.36 2265,1551.5C 2262.04,1559.71 2258.71,1567.71 2255,1575.5C 2249.79,1597.46 2244.79,1619.46 2240,1641.5C 2237.15,1665.52 2234.15,1689.52 2231,1713.5C 2231.11,1736.16 2231.44,1758.83 2232,1781.5C 2232.89,1791.96 2234.56,1802.3 2237,1812.5C 2243.18,1827.5 2249.51,1842.5 2256,1857.5C 2260.92,1865.67 2266.08,1873.67 2271.5,1881.5C 2297.68,1905.26 2328.01,1921.09 2362.5,1929C 2378.22,1931.14 2393.89,1930.8 2409.5,1928C 2435.93,1920.78 2460.27,1909.28 2482.5,1893.5C 2488.32,1891.51 2494.32,1890.51 2500.5,1890.5C 2533.67,1892.59 2562.01,1905.26 2585.5,1928.5C 2589.5,1933.83 2593.5,1939.17 2597.5,1944.5C 2605.18,1958.85 2612.01,1973.51 2618,1988.5C 2621.37,1999.34 2623.7,2010.34 2625,2021.5C 2623.87,2024.07 2621.87,2025.4 2619,2025.5C 2435.52,2024.34 2252.02,2024.17 2068.5,2025C 2063.25,2025.19 2058.08,2025.69 2053,2026.5C 2028.39,2024.52 2003.56,2023.85 1978.5,2024.5C 1976.48,1999.62 1981.48,1976.29 1993.5,1954.5C 1994.5,1953.5 1995.5,1952.5 1996.5,1951.5C 1995.17,1950.38 1994.67,1949.05 1995,1947.5C 1998.68,1947.57 2001.51,1945.74 2003.5,1942C 2002.33,1939.17 2003.17,1938.33 2006,1939.5C 2009.74,1937.51 2011.57,1934.68 2011.5,1931C 2013.18,1931.11 2014.84,1931.61 2016.5,1932.5C 2033.46,1922.77 2051.8,1918.77 2071.5,1920.5C 2083.23,1920.6 2094.9,1921.44 2106.5,1923C 2113.71,1926.07 2121.04,1928.74 2128.5,1931C 2125.77,1923.2 2123.77,1915.2 2122.5,1907C 2122.74,1906.13 2123.07,1905.29 2123.5,1904.5C 2120.28,1879.19 2116.94,1853.86 2113.5,1828.5C 2106,1790.66 2093.33,1754.66 2075.5,1720.5C 2062.66,1698.32 2045.66,1679.99 2024.5,1665.5C 2009.95,1657.6 1994.28,1653.26 1977.5,1652.5C 1957.53,1654.32 1938.86,1660.15 1921.5,1670C 1917.28,1671.64 1912.95,1672.81 1908.5,1673.5C 1908.34,1671.8 1908.51,1670.13 1909,1668.5C 1919.47,1654.57 1928.13,1639.57 1935,1623.5C 1942.69,1599.58 1950.19,1575.25 1957.5,1550.5C 1962.13,1529.37 1965.46,1508.04 1967.5,1486.5C 1969.84,1452.91 1968.01,1419.58 1962,1386.5C 1961.07,1382.36 1959.73,1378.36 1958,1374.5C 1954.73,1389.93 1950.06,1404.93 1944,1419.5C 1939.9,1424.61 1935.4,1429.44 1930.5,1434C 1928.53,1434.5 1926.53,1434.66 1924.5,1434.5C 1929.02,1414.98 1927.69,1395.82 1920.5,1377C 1913.96,1356.09 1905.63,1335.92 1895.5,1316.5C 1888.26,1307.93 1882.26,1298.6 1877.5,1288.5C 1866.5,1274.83 1854.17,1262.5 1840.5,1251.5C 1834.16,1249 1828.5,1245.5 1823.5,1241C 1814.6,1238.04 1805.93,1234.7 1797.5,1231C 1779.85,1226.19 1761.85,1224.36 1743.5,1225.5C 1732.13,1225.42 1720.8,1225.92 1709.5,1227C 1684.02,1233.06 1659.02,1240.56 1634.5,1249.5C 1618.5,1257.5 1602.5,1265.5 1586.5,1273.5C 1566.5,1286.83 1546.5,1300.17 1526.5,1313.5C 1502.8,1331.69 1479.47,1350.35 1456.5,1369.5C 1448.76,1376.9 1441.43,1384.57 1434.5,1392.5C 1443.4,1387.27 1452.07,1381.61 1460.5,1375.5C 1458.73,1374.18 1458.4,1372.68 1459.5,1371C 1461.18,1371.11 1462.84,1371.61 1464.5,1372.5C 1517.46,1333.09 1576.46,1306.26 1641.5,1292C 1662.73,1288.18 1684.06,1286.84 1705.5,1288C 1720.24,1290.35 1734.91,1293.02 1749.5,1296C 1764.11,1299.4 1777.78,1305.07 1790.5,1313C 1810.54,1327.04 1828.37,1343.54 1844,1362.5C 1847.83,1367.5 1851.17,1372.83 1854,1378.5C 1856.43,1387.56 1859.76,1396.22 1864,1404.5C 1870.74,1423.24 1874.57,1442.58 1875.5,1462.5C 1881.53,1549.72 1861.53,1630.38 1815.5,1704.5C 1810.33,1711.49 1805.67,1718.83 1801.5,1726.5C 1794.73,1733.93 1788.73,1741.93 1783.5,1750.5C 1769.83,1764.17 1756.17,1777.83 1742.5,1791.5C 1730.5,1800.17 1718.5,1808.83 1706.5,1817.5C 1678.72,1834.39 1650.06,1849.72 1620.5,1863.5C 1584.58,1877.63 1548.58,1891.47 1512.5,1905C 1594.76,1907.13 1675.42,1896.63 1754.5,1873.5C 1766.72,1870.11 1778.72,1866.11 1790.5,1861.5C 1795.17,1860.17 1799.83,1860.17 1804.5,1861.5C 1830.62,1868.56 1854.62,1879.9 1876.5,1895.5C 1884.17,1903.17 1891.83,1910.83 1899.5,1918.5C 1907.34,1930.84 1914.67,1943.51 1921.5,1956.5C 1928.28,1978.74 1932.61,2001.41 1934.5,2024.5C 1724.5,2024.17 1514.5,2024.5 1304.5,2025.5C 1259.5,2026.21 1214.5,2026.88 1169.5,2027.5C 1158.86,2026.34 1148.2,2025.5 1137.5,2025C 1098.49,2024.42 1059.49,2024.42 1020.5,2025C 975.384,2020.14 930.384,2014.47 885.5,2008C 825.467,1998.05 769.133,1977.88 716.5,1947.5C 709.521,1941.68 702.188,1936.34 694.5,1931.5C 684.167,1921.17 673.833,1910.83 663.5,1900.5C 642.44,1873.04 627.773,1842.37 619.5,1808.5C 602.824,1741.41 610.657,1677.41 643,1616.5C 643.195,1614.79 643.195,1613.13 643,1611.5C 644,1610.17 645,1610.17 646,1611.5C 648.234,1607.54 651.067,1604.04 654.5,1601C 657.601,1598.65 660.934,1598.15 664.5,1599.5C 660.179,1607.26 657.679,1615.6 657,1624.5C 655.89,1647.23 656.557,1669.9 659,1692.5C 659.725,1694.95 660.725,1697.28 662,1699.5C 664.208,1696.77 666.041,1693.77 667.5,1690.5C 690.359,1621.73 727.026,1561.73 777.5,1510.5C 778.167,1509.17 778.833,1507.83 779.5,1506.5C 809.224,1476.11 839.557,1446.44 870.5,1417.5C 877.763,1412.24 884.43,1406.24 890.5,1399.5C 894.5,1396.83 898.5,1394.17 902.5,1391.5C 914.5,1380.17 926.5,1368.83 938.5,1357.5C 943.764,1355.44 946.764,1351.94 947.5,1347C 950.927,1347.54 953.927,1346.37 956.5,1343.5C 954.73,1342.18 954.397,1340.68 955.5,1339C 957.178,1339.11 958.845,1339.61 960.5,1340.5C 972.591,1331.1 983.924,1320.77 994.5,1309.5C 999.833,1305.5 1005.17,1301.5 1010.5,1297.5C 1011.17,1296.83 1011.83,1296.17 1012.5,1295.5C 1009.83,1290.83 1010.83,1289.83 1015.5,1292.5C 1017.17,1290.83 1018.83,1289.17 1020.5,1287.5C 1017.83,1282.83 1018.83,1281.83 1023.5,1284.5C 1030.43,1279.57 1036.76,1273.91 1042.5,1267.5C 1054.35,1259.66 1065.02,1250.32 1074.5,1239.5C 1075.83,1238.83 1077.17,1238.17 1078.5,1237.5C 1108.17,1207.83 1137.83,1178.17 1167.5,1148.5C 1182.82,1129.88 1196.15,1109.88 1207.5,1088.5C 1211.07,1080.87 1213.41,1072.87 1214.5,1064.5C 1213.65,1055.09 1210.65,1046.42 1205.5,1038.5C 1185.88,1016.37 1161.22,1006.37 1131.5,1008.5C 1111.01,1007.89 1091.01,1010.39 1071.5,1016C 1063.87,1017.4 1056.2,1018.57 1048.5,1019.5C 1034.99,1022.88 1021.66,1026.88 1008.5,1031.5C 982.428,1037.18 956.428,1043.18 930.5,1049.5C 901.293,1055.58 871.96,1060.91 842.5,1065.5C 820.5,1066.83 798.5,1066.83 776.5,1065.5C 764.364,1063.47 752.364,1060.8 740.5,1057.5C 710.836,1047.16 682.169,1034.5 654.5,1019.5C 640.826,1010.99 626.826,1002.99 612.5,995.5C 597.833,986.167 583.167,976.833 568.5,967.5C 537.833,946.167 507.167,924.833 476.5,903.5C 469.066,896.731 461.066,890.731 452.5,885.5C 449.833,882.833 447.167,880.167 444.5,877.5C 432.5,868.833 420.5,860.167 408.5,851.5C 401.86,846.694 396.026,841.027 391,834.5C 389.36,832.421 388.194,830.088 387.5,827.5C 512.453,864.818 639.453,895.485 768.5,919.5C 805.647,925.592 842.814,931.259 880,936.5C 882.22,936.455 883.72,935.455 884.5,933.5C 880.839,931.176 877.173,928.842 873.5,926.5C 871.72,929.922 870.72,929.256 870.5,924.5C 869.022,924.762 867.689,924.429 866.5,923.5C 833.983,903.07 800.649,883.903 766.5,866C 762.818,864.68 761.318,862.18 762,858.5C 762.561,857.978 763.228,857.645 764,857.5C 855.127,876.273 946.627,893.607 1038.5,909.5C 1065.23,915.516 1091.89,921.516 1118.5,927.5C 1185.62,939.598 1250.95,958.265 1314.5,983.5C 1317.94,986.554 1321.94,988.554 1326.5,989.5C 1327.83,990.833 1329.17,992.167 1330.5,993.5C 1346.51,1001 1359.68,1012 1370,1026.5C 1372.28,1034.07 1374.11,1041.74 1375.5,1049.5C 1376.82,1065.04 1373.32,1079.37 1365,1092.5C 1345.62,1113.05 1325.45,1132.71 1304.5,1151.5C 1301.17,1153.5 1297.83,1155.5 1294.5,1157.5C 1278.34,1173.67 1261.01,1188.34 1242.5,1201.5C 1239.17,1204.83 1235.83,1208.17 1232.5,1211.5C 1217.08,1224.93 1201.08,1237.59 1184.5,1249.5C 1176.5,1256.83 1168.5,1264.17 1160.5,1271.5C 1155.83,1274.83 1151.17,1278.17 1146.5,1281.5C 1135.9,1290.1 1125.9,1299.43 1116.5,1309.5C 1108.81,1314.34 1101.48,1319.68 1094.5,1325.5C 1083.83,1335.5 1073.17,1345.5 1062.5,1355.5C 1057.83,1358.83 1053.17,1362.17 1048.5,1365.5C 992.291,1415.04 938.624,1467.37 887.5,1522.5C 882.935,1530.94 876.935,1538.27 869.5,1544.5C 856.833,1562.5 844.167,1580.5 831.5,1598.5C 808.96,1632.93 792.96,1670.26 783.5,1710.5C 779.072,1726.93 777.738,1743.59 779.5,1760.5C 781.39,1767.73 782.723,1775.06 783.5,1782.5C 788.494,1799.82 795.16,1816.49 803.5,1832.5C 833.984,1877.62 875.651,1907.29 928.5,1921.5C 966.902,1930.92 1005.9,1936.25 1045.5,1937.5C 1067.71,1936.69 1089.71,1935.86 1111.5,1935C 1112.83,1934.67 1114.17,1934.33 1115.5,1934C 1114.18,1932.46 1114.51,1931.29 1116.5,1930.5C 1118.49,1931.29 1118.82,1932.46 1117.5,1934C 1131.83,1934.67 1146.17,1934.67 1160.5,1934C 1162,1933.42 1163.33,1932.58 1164.5,1931.5C 1158.76,1926.43 1153.76,1920.76 1149.5,1914.5C 1126.23,1875.69 1110.23,1834.02 1101.5,1789.5C 1102.14,1762.51 1102.81,1735.51 1103.5,1708.5C 1111.48,1646.61 1124.81,1585.94 1143.5,1526.5C 1153.67,1500.67 1165,1475.33 1177.5,1450.5C 1190.84,1427.82 1205.17,1405.82 1220.5,1384.5C 1219.61,1382.84 1219.11,1381.18 1219,1379.5C 1220.68,1378.4 1222.18,1378.73 1223.5,1380.5C 1225.17,1378.83 1226.83,1377.17 1228.5,1375.5C 1227.17,1374.38 1226.67,1373.05 1227,1371.5C 1228,1370.17 1229,1370.17 1230,1371.5C 1231.98,1370.02 1233.82,1368.35 1235.5,1366.5C 1238.17,1362.5 1240.83,1358.5 1243.5,1354.5C 1249.91,1348.76 1255.57,1342.43 1260.5,1335.5C 1257.83,1330.83 1258.83,1329.83 1263.5,1332.5C 1265.17,1330.83 1266.83,1329.17 1268.5,1327.5C 1265.83,1322.83 1266.83,1321.83 1271.5,1324.5C 1273.17,1322.83 1274.83,1321.17 1276.5,1319.5C 1273.83,1314.83 1274.83,1313.83 1279.5,1316.5C 1281.17,1314.83 1282.83,1313.17 1284.5,1311.5C 1281.83,1306.83 1282.83,1305.83 1287.5,1308.5C 1288.46,1306.08 1289.79,1303.92 1291.5,1302C 1290.55,1301.28 1290.38,1300.45 1291,1299.5C 1294.68,1299.57 1297.51,1297.74 1299.5,1294C 1298.55,1293.28 1298.38,1292.45 1299,1291.5C 1302.68,1291.57 1305.51,1289.74 1307.5,1286C 1306.55,1285.28 1306.38,1284.45 1307,1283.5C 1310.68,1283.57 1313.51,1281.74 1315.5,1278C 1314.55,1277.28 1314.38,1276.45 1315,1275.5C 1318.68,1275.57 1321.51,1273.74 1323.5,1270C 1322.33,1267.17 1323.17,1266.33 1326,1267.5C 1329.74,1265.51 1331.57,1262.68 1331.5,1259C 1333.05,1258.67 1334.38,1259.17 1335.5,1260.5C 1337.17,1258.83 1338.83,1257.17 1340.5,1255.5C 1337.83,1250.83 1338.83,1249.83 1343.5,1252.5C 1345.17,1250.83 1346.83,1249.17 1348.5,1247.5C 1345.83,1242.83 1346.83,1241.83 1351.5,1244.5C 1358.43,1239.57 1364.76,1233.91 1370.5,1227.5C 1371.83,1226.83 1373.17,1226.17 1374.5,1225.5C 1414.17,1185.83 1453.83,1146.17 1493.5,1106.5C 1502.82,1092.03 1509.82,1076.53 1514.5,1060C 1515.17,1053.67 1515.17,1047.17 1514.5,1040.5C 1515.78,1037.99 1516.45,1035.32 1516.5,1032.5C 1514.78,1023.01 1512.45,1013.68 1509.5,1004.5C 1504.67,995.499 1499.33,986.832 1493.5,978.5C 1485.17,970.167 1476.83,961.833 1468.5,953.5C 1456.5,945.5 1444.5,937.5 1432.5,929.5C 1383.77,905.034 1333.1,885.701 1280.5,871.5C 1249.84,863.504 1219.18,855.504 1188.5,847.5C 1164.99,842.932 1141.66,837.599 1118.5,831.5C 1003.21,807.109 887.876,783.776 772.5,761.5C 772.703,759.61 772.037,758.11 770.5,757C 888.199,742.933 998.199,705.767 1100.5,645.5C 1107.86,640.821 1114.86,635.655 1121.5,630C 1110.83,631.501 1100.17,633.167 1089.5,635C 1081.09,636.68 1072.76,638.68 1064.5,641C 983.45,652.272 902.116,661.105 820.5,667.5C 797.179,669.043 773.845,670.377 750.5,671.5C 681.502,672.667 612.502,672.833 543.5,672C 515.238,668.583 486.905,665.916 458.5,664C 452.349,663.476 446.683,661.643 441.5,658.5C 440.571,657.311 440.238,655.978 440.5,654.5C 500.586,638.36 559.252,618.027 616.5,593.5C 633.833,584.833 651.167,576.167 668.5,567.5C 671.503,563.993 675.169,561.493 679.5,560C 680.833,558.667 682.167,557.333 683.5,556C 660.974,558.31 638.64,562.144 616.5,567.5C 514.964,581.704 412.964,586.371 310.5,581.5C 262.756,580.209 215.256,576.209 168,569.5C 166.578,570.205 165.245,570.539 164,570.5C 120.848,563.162 77.6816,554.662 34.5,545C 31.4591,544.424 28.7925,543.258 26.5,541.5C 142.285,533.977 255.619,512.644 366.5,477.5C 490.631,436.772 610.631,386.105 726.5,325.5C 838.793,266.358 950.127,205.691 1060.5,143.5C 1111.59,116.617 1163.59,91.9508 1216.5,69.5C 1257.32,53.4601 1299.32,41.4601 1342.5,33.5C 1363.75,30.5432 1385.09,29.8766 1406.5,31.5C 1447.15,36.3319 1487.82,40.9985 1528.5,45.5C 1620.03,60.0726 1710.7,78.7393 1800.5,101.5C 1824.28,108.982 1848.28,115.649 1872.5,121.5C 1876.29,125.117 1877.29,129.45 1875.5,134.5C 1859.67,150.336 1842.67,164.67 1824.5,177.5C 1792.17,209.833 1759.83,242.167 1727.5,274.5C 1724.17,279.167 1720.83,283.833 1717.5,288.5C 1711.38,293.415 1706.72,299.415 1703.5,306.5C 1696.07,314.596 1689.4,323.263 1683.5,332.5C 1681.5,334.5 1679.5,336.5 1677.5,338.5C 1671.33,348.844 1664.66,358.844 1657.5,368.5C 1656.83,370.5 1656.17,372.5 1655.5,374.5C 1627.48,415.866 1608.81,461.199 1599.5,510.5C 1597.91,530.581 1598.58,550.581 1601.5,570.5C 1606.65,588.797 1613.98,606.131 1623.5,622.5C 1633.68,636.693 1645.35,649.693 1658.5,661.5C 1666.39,666.06 1673.73,671.393 1680.5,677.5C 1685.49,679.661 1690.16,682.328 1694.5,685.5C 1716.67,697.919 1739.34,709.252 1762.5,719.5C 1819.46,738.04 1876.12,757.374 1932.5,777.5C 1945.48,783.657 1958.15,790.324 1970.5,797.5C 1995.35,815.541 2007.02,839.874 2005.5,870.5C 2020.46,855.258 2032.46,837.925 2041.5,818.5C 2052.37,787.117 2044.04,762.117 2016.5,743.5C 2001.48,734.661 1985.48,727.994 1968.5,723.5C 1934.55,714.513 1900.55,705.846 1866.5,697.5C 1854.49,693.943 1842.82,689.61 1831.5,684.5C 1831.17,683.167 1830.83,681.833 1830.5,680.5C 1831.61,676.281 1833.28,672.281 1835.5,668.5C 1843.5,655.167 1851.5,641.833 1859.5,628.5C 1870.28,614.382 1880.28,599.715 1889.5,584.5C 1892.17,581.833 1894.83,579.167 1897.5,576.5C 1901.71,570.585 1906.04,564.752 1910.5,559C 1910.33,558.5 1910.17,558 1910,557.5C 1907.67,558.833 1906.67,558.167 1907,555.5C 1908.68,554.397 1910.18,554.73 1911.5,556.5C 1913.5,554.5 1915.5,552.5 1917.5,550.5C 1924.83,541.167 1932.17,531.833 1939.5,522.5C 1954.86,507.471 1969.86,492.138 1984.5,476.5C 1982.2,473.203 1979.54,470.203 1976.5,467.5C 1970.15,464.05 1963.49,461.384 1956.5,459.5C 1930.29,458.813 1904.29,456.146 1878.5,451.5C 1873.6,450.051 1868.93,448.051 1864.5,445.5C 1860.17,441.167 1855.83,436.833 1851.5,432.5C 1848.83,425.833 1846.17,419.167 1843.5,412.5C 1842.75,403.166 1842.09,393.833 1841.5,384.5C 1843.81,372.788 1846.31,361.121 1849,349.5C 1854.79,333.797 1859.79,317.797 1864,301.5C 1867.01,296.479 1869.18,291.145 1870.5,285.5 Z M 2280.5,236.5 C 2291.83,236.5 2303.17,236.5 2314.5,236.5C 2314.76,237.978 2314.43,239.311 2313.5,240.5C 2302.56,249.433 2292.23,259.1 2282.5,269.5C 2275.83,274.167 2269.17,278.833 2262.5,283.5C 2256.14,286.953 2249.47,289.619 2242.5,291.5C 2233.99,288.706 2225.32,286.539 2216.5,285C 2213.39,283.625 2212.39,281.458 2213.5,278.5C 2232.65,259.11 2254.98,245.11 2280.5,236.5 Z M 1434.5,1392.5 C 1434.22,1393.29 1433.72,1393.96 1433,1394.5C 1432.47,1393.18 1432.97,1392.52 1434.5,1392.5 Z"/></g>
<g><path style="opacity:0.042" fill="#323331" d="M 1299.5,34.5 C 1302.86,35.2032 1303.19,36.5365 1300.5,38.5C 1298.36,37.5629 1298.02,36.2296 1299.5,34.5 Z"/></g>
<g><path style="opacity:0.042" fill="#323331" d="M 1267.5,42.5 C 1270.86,43.2032 1271.19,44.5365 1268.5,46.5C 1266.36,45.5629 1266.02,44.2296 1267.5,42.5 Z"/></g>
<g><path style="opacity:0.042" fill="#323331" d="M 1243.5,50.5 C 1246.86,51.2032 1247.19,52.5365 1244.5,54.5C 1242.36,53.5629 1242.02,52.2296 1243.5,50.5 Z"/></g>
<g><path style="opacity:0.042" fill="#323331" d="M 1227.5,58.5 C 1230.86,59.2032 1231.19,60.5365 1228.5,62.5C 1226.36,61.5629 1226.02,60.2296 1227.5,58.5 Z"/></g>
<g><path style="opacity:0.042" fill="#323331" d="M 1203.5,66.5 C 1206.86,67.2032 1207.19,68.5365 1204.5,70.5C 1202.36,69.5629 1202.02,68.2296 1203.5,66.5 Z"/></g>
<g><path style="opacity:0.042" fill="#323331" d="M 1187.5,74.5 C 1190.86,75.2032 1191.19,76.5365 1188.5,78.5C 1186.36,77.5629 1186.02,76.2296 1187.5,74.5 Z"/></g>
<g><path style="opacity:0.042" fill="#323331" d="M 1163.5,82.5 C 1166.86,83.2032 1167.19,84.5365 1164.5,86.5C 1162.36,85.5629 1162.02,84.2296 1163.5,82.5 Z"/></g>
<g><path style="opacity:0.042" fill="#323331" d="M 1147.5,90.5 C 1150.86,91.2032 1151.19,92.5365 1148.5,94.5C 1146.36,93.5629 1146.02,92.2296 1147.5,90.5 Z"/></g>
<g><path style="opacity:0.042" fill="#323331" d="M 1131.5,98.5 C 1134.86,99.2032 1135.19,100.537 1132.5,102.5C 1130.36,101.563 1130.02,100.23 1131.5,98.5 Z"/></g>
<g><path style="opacity:0.042" fill="#323331" d="M 1115.5,106.5 C 1118.86,107.203 1119.19,108.537 1116.5,110.5C 1114.36,109.563 1114.02,108.23 1115.5,106.5 Z"/></g>
<g><path style="opacity:0.042" fill="#323331" d="M 1099.5,114.5 C 1102.86,115.203 1103.19,116.537 1100.5,118.5C 1098.36,117.563 1098.02,116.23 1099.5,114.5 Z"/></g>
<g><path style="opacity:0.042" fill="#323331" d="M 2507.5,114.5 C 2510.86,115.203 2511.19,116.537 2508.5,118.5C 2506.36,117.563 2506.02,116.23 2507.5,114.5 Z"/></g>
<g><path style="opacity:0.042" fill="#323331" d="M 1083.5,122.5 C 1086.86,123.203 1087.19,124.537 1084.5,126.5C 1082.36,125.563 1082.02,124.23 1083.5,122.5 Z"/></g>
<g><path style="opacity:0.042" fill="#323331" d="M 2483.5,122.5 C 2486.86,123.203 2487.19,124.537 2484.5,126.5C 2482.36,125.563 2482.02,124.23 2483.5,122.5 Z"/></g>
<g><path style="opacity:0.042" fill="#323331" d="M 1067.5,130.5 C 1070.86,131.203 1071.19,132.537 1068.5,134.5C 1066.36,133.563 1066.02,132.23 1067.5,130.5 Z"/></g>
<g><path style="opacity:0.042" fill="#323331" d="M 2283.5,130.5 C 2286.86,131.203 2287.19,132.537 2284.5,134.5C 2282.36,133.563 2282.02,132.23 2283.5,130.5 Z"/></g>
<g><path style="opacity:0.042" fill="#323331" d="M 2459.5,130.5 C 2462.86,131.203 2463.19,132.537 2460.5,134.5C 2458.36,133.563 2458.02,132.23 2459.5,130.5 Z"/></g>
<g><path style="opacity:0.042" fill="#323331" d="M 1051.5,138.5 C 1054.86,139.203 1055.19,140.537 1052.5,142.5C 1050.36,141.563 1050.02,140.23 1051.5,138.5 Z"/></g>
<g><path style="opacity:0.042" fill="#323331" d="M 2259.5,138.5 C 2262.86,139.203 2263.19,140.537 2260.5,142.5C 2258.36,141.563 2258.02,140.23 2259.5,138.5 Z"/></g>
<g><path style="opacity:0.042" fill="#323331" d="M 2443.5,138.5 C 2446.86,139.203 2447.19,140.537 2444.5,142.5C 2442.36,141.563 2442.02,140.23 2443.5,138.5 Z"/></g>
<g><path style="opacity:0.042" fill="#323331" d="M 1043.5,146.5 C 1046.86,147.203 1047.19,148.537 1044.5,150.5C 1042.36,149.563 1042.02,148.23 1043.5,146.5 Z"/></g>
<g><path style="opacity:0.042" fill="#323331" d="M 2243.5,146.5 C 2246.86,147.203 2247.19,148.537 2244.5,150.5C 2242.36,149.563 2242.02,148.23 2243.5,146.5 Z"/></g>
<g><path style="opacity:0.042" fill="#323331" d="M 2427.5,146.5 C 2430.86,147.203 2431.19,148.537 2428.5,150.5C 2426.36,149.563 2426.02,148.23 2427.5,146.5 Z"/></g>
<g><path style="opacity:0.042" fill="#323331" d="M 1027.5,154.5 C 1030.86,155.203 1031.19,156.537 1028.5,158.5C 1026.36,157.563 1026.02,156.23 1027.5,154.5 Z"/></g>
<g><path style="opacity:0.042" fill="#323331" d="M 2227.5,154.5 C 2230.86,155.203 2231.19,156.537 2228.5,158.5C 2226.36,157.563 2226.02,156.23 2227.5,154.5 Z"/></g>
<g><path style="opacity:0.042" fill="#323331" d="M 2419.5,154.5 C 2422.86,155.203 2423.19,156.537 2420.5,158.5C 2418.36,157.563 2418.02,156.23 2419.5,154.5 Z"/></g>
<g><path style="opacity:0.042" fill="#323331" d="M 1011.5,162.5 C 1014.86,163.203 1015.19,164.537 1012.5,166.5C 1010.36,165.563 1010.02,164.23 1011.5,162.5 Z"/></g>
<g><path style="opacity:0.042" fill="#323331" d="M 2211.5,162.5 C 2214.86,163.203 2215.19,164.537 2212.5,166.5C 2210.36,165.563 2210.02,164.23 2211.5,162.5 Z"/></g>
<g><path style="opacity:0.042" fill="#323331" d="M 2403.5,162.5 C 2406.86,163.203 2407.19,164.537 2404.5,166.5C 2402.36,165.563 2402.02,164.23 2403.5,162.5 Z"/></g>
<g><path style="opacity:0.042" fill="#323331" d="M 995.5,170.5 C 998.861,171.203 999.194,172.537 996.5,174.5C 994.358,173.563 994.024,172.23 995.5,170.5 Z"/></g>
<g><path style="opacity:0.042" fill="#323331" d="M 2195.5,170.5 C 2198.86,171.203 2199.19,172.537 2196.5,174.5C 2194.36,173.563 2194.02,172.23 2195.5,170.5 Z"/></g>
<g><path style="opacity:0.042" fill="#323331" d="M 979.5,178.5 C 982.861,179.203 983.194,180.537 980.5,182.5C 978.358,181.563 978.024,180.23 979.5,178.5 Z"/></g>
<g><path style="opacity:0.042" fill="#323331" d="M 2179.5,178.5 C 2182.86,179.203 2183.19,180.537 2180.5,182.5C 2178.36,181.563 2178.02,180.23 2179.5,178.5 Z"/></g>
<g><path style="opacity:0.042" fill="#323331" d="M 963.5,186.5 C 966.861,187.203 967.194,188.537 964.5,190.5C 962.358,189.563 962.024,188.23 963.5,186.5 Z"/></g>
<g><path style="opacity:0.042" fill="#323331" d="M 2171.5,186.5 C 2174.86,187.203 2175.19,188.537 2172.5,190.5C 2170.36,189.563 2170.02,188.23 2171.5,186.5 Z"/></g>
<g><path style="opacity:0.042" fill="#323331" d="M 955.5,194.5 C 958.861,195.203 959.194,196.537 956.5,198.5C 954.358,197.563 954.024,196.23 955.5,194.5 Z"/></g>
<g><path style="opacity:0.042" fill="#323331" d="M 2155.5,194.5 C 2158.86,195.203 2159.19,196.537 2156.5,198.5C 2154.36,197.563 2154.02,196.23 2155.5,194.5 Z"/></g>
<g><path style="opacity:0.042" fill="#323331" d="M 939.5,202.5 C 942.861,203.203 943.194,204.537 940.5,206.5C 938.358,205.563 938.024,204.23 939.5,202.5 Z"/></g>
<g><path style="opacity:0.042" fill="#323331" d="M 2147.5,202.5 C 2150.86,203.203 2151.19,204.537 2148.5,206.5C 2146.36,205.563 2146.02,204.23 2147.5,202.5 Z"/></g>
<g><path style="opacity:0.042" fill="#323331" d="M 923.5,210.5 C 926.861,211.203 927.194,212.537 924.5,214.5C 922.358,213.563 922.024,212.23 923.5,210.5 Z"/></g>
<g><path style="opacity:0.042" fill="#323331" d="M 2131.5,210.5 C 2134.86,211.203 2135.19,212.537 2132.5,214.5C 2130.36,213.563 2130.02,212.23 2131.5,210.5 Z"/></g>
<g><path style="opacity:0.042" fill="#323331" d="M 907.5,218.5 C 910.861,219.203 911.194,220.537 908.5,222.5C 906.358,221.563 906.024,220.23 907.5,218.5 Z"/></g>
<g><path style="opacity:0.042" fill="#323331" d="M 2123.5,218.5 C 2126.86,219.203 2127.19,220.537 2124.5,222.5C 2122.36,221.563 2122.02,220.23 2123.5,218.5 Z"/></g>
<g><path style="opacity:0.042" fill="#323331" d="M 891.5,226.5 C 894.861,227.203 895.194,228.537 892.5,230.5C 890.358,229.563 890.024,228.23 891.5,226.5 Z"/></g>
<g><path style="opacity:0.042" fill="#323331" d="M 2107.5,226.5 C 2110.86,227.203 2111.19,228.537 2108.5,230.5C 2106.36,229.563 2106.02,228.23 2107.5,226.5 Z"/></g>
<g><path style="opacity:0.042" fill="#323331" d="M 883.5,234.5 C 886.861,235.203 887.194,236.537 884.5,238.5C 882.358,237.563 882.024,236.23 883.5,234.5 Z"/></g>
<g><path style="opacity:0.042" fill="#323331" d="M 2099.5,234.5 C 2102.86,235.203 2103.19,236.537 2100.5,238.5C 2098.36,237.563 2098.02,236.23 2099.5,234.5 Z"/></g>
<g><path style="opacity:0.042" fill="#323331" d="M 867.5,242.5 C 870.861,243.203 871.194,244.537 868.5,246.5C 866.358,245.563 866.024,244.23 867.5,242.5 Z"/></g>
<g><path style="opacity:0.042" fill="#323331" d="M 2091.5,242.5 C 2094.86,243.203 2095.19,244.537 2092.5,246.5C 2090.36,245.563 2090.02,244.23 2091.5,242.5 Z"/></g>
<g><path style="opacity:0.042" fill="#323331" d="M 2299.5,242.5 C 2302.86,243.203 2303.19,244.537 2300.5,246.5C 2298.36,245.563 2298.02,244.23 2299.5,242.5 Z"/></g>
<g><path style="opacity:0.042" fill="#323331" d="M 851.5,250.5 C 854.861,251.203 855.194,252.537 852.5,254.5C 850.358,253.563 850.024,252.23 851.5,250.5 Z"/></g>
<g><path style="opacity:0.042" fill="#323331" d="M 2291.5,250.5 C 2294.86,251.203 2295.19,252.537 2292.5,254.5C 2290.36,253.563 2290.02,252.23 2291.5,250.5 Z"/></g>
<g><path style="opacity:0.042" fill="#323331" d="M 835.5,258.5 C 838.861,259.203 839.194,260.537 836.5,262.5C 834.358,261.563 834.024,260.23 835.5,258.5 Z"/></g>
<g><path style="opacity:0.042" fill="#323331" d="M 2067.5,258.5 C 2070.86,259.203 2071.19,260.537 2068.5,262.5C 2066.36,261.563 2066.02,260.23 2067.5,258.5 Z"/></g>
<g><path style="opacity:0.042" fill="#323331" d="M 2283.5,258.5 C 2286.86,259.203 2287.19,260.537 2284.5,262.5C 2282.36,261.563 2282.02,260.23 2283.5,258.5 Z"/></g>
<g><path style="opacity:0.042" fill="#323331" d="M 819.5,266.5 C 822.861,267.203 823.194,268.537 820.5,270.5C 818.358,269.563 818.024,268.23 819.5,266.5 Z"/></g>
<g><path style="opacity:0.042" fill="#323331" d="M 2059.5,266.5 C 2062.86,267.203 2063.19,268.537 2060.5,270.5C 2058.36,269.563 2058.02,268.23 2059.5,266.5 Z"/></g>
<g><path style="opacity:0.042" fill="#323331" d="M 2275.5,266.5 C 2278.86,267.203 2279.19,268.537 2276.5,270.5C 2274.36,269.563 2274.02,268.23 2275.5,266.5 Z"/></g>
<g><path style="opacity:0.042" fill="#323331" d="M 803.5,274.5 C 806.861,275.203 807.194,276.537 804.5,278.5C 802.358,277.563 802.024,276.23 803.5,274.5 Z"/></g>
<g><path style="opacity:0.042" fill="#323331" d="M 2259.5,274.5 C 2262.86,275.203 2263.19,276.537 2260.5,278.5C 2258.36,277.563 2258.02,276.23 2259.5,274.5 Z"/></g>
<g><path style="opacity:0.042" fill="#323331" d="M 787.5,282.5 C 790.861,283.203 791.194,284.537 788.5,286.5C 786.358,285.563 786.024,284.23 787.5,282.5 Z"/></g>
<g><path style="opacity:0.042" fill="#323331" d="M 1870.5,285.5 C 1868.77,286.976 1867.44,286.642 1866.5,284.5C 1868.46,281.806 1869.8,282.139 1870.5,285.5 Z"/></g>
<g><path style="opacity:0.042" fill="#323331" d="M 2035.5,282.5 C 2038.86,283.203 2039.19,284.537 2036.5,286.5C 2034.36,285.563 2034.02,284.23 2035.5,282.5 Z"/></g>
<g><path style="opacity:0.042" fill="#323331" d="M 2243.5,282.5 C 2246.86,283.203 2247.19,284.537 2244.5,286.5C 2242.36,285.563 2242.02,284.23 2243.5,282.5 Z"/></g>
<g><path style="opacity:0.042" fill="#323331" d="M 779.5,290.5 C 782.861,291.203 783.194,292.537 780.5,294.5C 778.358,293.563 778.024,292.23 779.5,290.5 Z"/></g>
<g><path style="opacity:0.042" fill="#323331" d="M 1859.5,290.5 C 1862.86,291.203 1863.19,292.537 1860.5,294.5C 1858.36,293.563 1858.02,292.23 1859.5,290.5 Z"/></g>
<g><path style="opacity:0.042" fill="#323331" d="M 2019.5,290.5 C 2022.86,291.203 2023.19,292.537 2020.5,294.5C 2018.36,293.563 2018.02,292.23 2019.5,290.5 Z"/></g>
<g><path style="opacity:0.042" fill="#323331" d="M 763.5,298.5 C 766.861,299.203 767.194,300.537 764.5,302.5C 762.358,301.563 762.024,300.23 763.5,298.5 Z"/></g>
<g><path style="opacity:0.042" fill="#323331" d="M 2011.5,298.5 C 2014.86,299.203 2015.19,300.537 2012.5,302.5C 2010.36,301.563 2010.02,300.23 2011.5,298.5 Z"/></g>
<g><path style="opacity:0.042" fill="#323331" d="M 747.5,306.5 C 750.861,307.203 751.194,308.537 748.5,310.5C 746.358,309.563 746.024,308.23 747.5,306.5 Z"/></g>
<g><path style="opacity:0.042" fill="#323331" d="M 1995.5,306.5 C 1998.86,307.203 1999.19,308.537 1996.5,310.5C 1994.36,309.563 1994.02,308.23 1995.5,306.5 Z"/></g>
<g><path style="opacity:0.042" fill="#323331" d="M 731.5,314.5 C 734.861,315.203 735.194,316.537 732.5,318.5C 730.358,317.563 730.024,316.23 731.5,314.5 Z"/></g>
<g><path style="opacity:0.042" fill="#323331" d="M 1851.5,314.5 C 1854.86,315.203 1855.19,316.537 1852.5,318.5C 1850.36,317.563 1850.02,316.23 1851.5,314.5 Z"/></g>
<g><path style="opacity:0.042" fill="#323331" d="M 1979.5,314.5 C 1982.86,315.203 1983.19,316.537 1980.5,318.5C 1978.36,317.563 1978.02,316.23 1979.5,314.5 Z"/></g>
<g><path style="opacity:0.042" fill="#323331" d="M 715.5,322.5 C 718.861,323.203 719.194,324.537 716.5,326.5C 714.358,325.563 714.024,324.23 715.5,322.5 Z"/></g>
<g><path style="opacity:0.042" fill="#323331" d="M 699.5,330.5 C 702.861,331.203 703.194,332.537 700.5,334.5C 698.358,333.563 698.024,332.23 699.5,330.5 Z"/></g>
<g><path style="opacity:0.042" fill="#323331" d="M 683.5,338.5 C 686.861,339.203 687.194,340.537 684.5,342.5C 682.358,341.563 682.024,340.23 683.5,338.5 Z"/></g>
<g><path style="opacity:0.042" fill="#323331" d="M 1843.5,338.5 C 1846.86,339.203 1847.19,340.537 1844.5,342.5C 1842.36,341.563 1842.02,340.23 1843.5,338.5 Z"/></g>
<g><path style="opacity:0.042" fill="#323331" d="M 667.5,346.5 C 670.861,347.203 671.194,348.537 668.5,350.5C 666.358,349.563 666.024,348.23 667.5,346.5 Z"/></g>
<g><path style="opacity:0.042" fill="#323331" d="M 651.5,354.5 C 654.861,355.203 655.194,356.537 652.5,358.5C 650.358,357.563 650.024,356.23 651.5,354.5 Z"/></g>
<g><path style="opacity:0.042" fill="#323331" d="M 635.5,362.5 C 638.861,363.203 639.194,364.537 636.5,366.5C 634.358,365.563 634.024,364.23 635.5,362.5 Z"/></g>
<g><path style="opacity:0.042" fill="#323331" d="M 619.5,370.5 C 622.861,371.203 623.194,372.537 620.5,374.5C 618.358,373.563 618.024,372.23 619.5,370.5 Z"/></g>
<g><path style="opacity:0.042" fill="#323331" d="M 603.5,378.5 C 606.861,379.203 607.194,380.537 604.5,382.5C 602.358,381.563 602.024,380.23 603.5,378.5 Z"/></g>
<g><path style="opacity:0.042" fill="#323331" d="M 579.5,386.5 C 582.861,387.203 583.194,388.537 580.5,390.5C 578.358,389.563 578.024,388.23 579.5,386.5 Z"/></g>
<g><path style="opacity:0.042" fill="#323331" d="M 563.5,394.5 C 566.861,395.203 567.194,396.537 564.5,398.5C 562.358,397.563 562.024,396.23 563.5,394.5 Z"/></g>
<g><path style="opacity:0.042" fill="#323331" d="M 547.5,402.5 C 550.861,403.203 551.194,404.537 548.5,406.5C 546.358,405.563 546.024,404.23 547.5,402.5 Z"/></g>
<g><path style="opacity:0.042" fill="#323331" d="M 523.5,410.5 C 526.861,411.203 527.194,412.537 524.5,414.5C 522.358,413.563 522.024,412.23 523.5,410.5 Z"/></g>
<g><path style="opacity:0.042" fill="#323331" d="M 507.5,418.5 C 510.861,419.203 511.194,420.537 508.5,422.5C 506.358,421.563 506.024,420.23 507.5,418.5 Z"/></g>
<g><path style="opacity:0.042" fill="#323331" d="M 483.5,426.5 C 486.861,427.203 487.194,428.537 484.5,430.5C 482.358,429.563 482.024,428.23 483.5,426.5 Z"/></g>
<g><path style="opacity:0.042" fill="#323331" d="M 467.5,434.5 C 470.861,435.203 471.194,436.537 468.5,438.5C 466.358,437.563 466.024,436.23 467.5,434.5 Z"/></g>
<g><path style="opacity:0.042" fill="#323331" d="M 443.5,442.5 C 446.861,443.203 447.194,444.537 444.5,446.5C 442.358,445.563 442.024,444.23 443.5,442.5 Z"/></g>
<g><path style="opacity:0.042" fill="#323331" d="M 419.5,450.5 C 422.861,451.203 423.194,452.537 420.5,454.5C 418.358,453.563 418.024,452.23 419.5,450.5 Z"/></g>
<g><path style="opacity:0.042" fill="#323331" d="M 395.5,458.5 C 398.861,459.203 399.194,460.537 396.5,462.5C 394.358,461.563 394.024,460.23 395.5,458.5 Z"/></g>
<g><path style="opacity:0.042" fill="#323331" d="M 371.5,466.5 C 374.861,467.203 375.194,468.537 372.5,470.5C 370.358,469.563 370.024,468.23 371.5,466.5 Z"/></g>
<g><path style="opacity:0.042" fill="#323331" d="M 347.5,474.5 C 350.861,475.203 351.194,476.537 348.5,478.5C 346.358,477.563 346.024,476.23 347.5,474.5 Z"/></g>
<g><path style="opacity:0.042" fill="#323331" d="M 323.5,482.5 C 326.861,483.203 327.194,484.537 324.5,486.5C 322.358,485.563 322.024,484.23 323.5,482.5 Z"/></g>
<g><path style="opacity:0.042" fill="#323331" d="M 1971.5,482.5 C 1974.86,483.203 1975.19,484.537 1972.5,486.5C 1970.36,485.563 1970.02,484.23 1971.5,482.5 Z"/></g>
<g><path style="opacity:0.042" fill="#323331" d="M 291.5,490.5 C 294.861,491.203 295.194,492.537 292.5,494.5C 290.358,493.563 290.024,492.23 291.5,490.5 Z"/></g>
<g><path style="opacity:0.042" fill="#323331" d="M 1963.5,490.5 C 1966.86,491.203 1967.19,492.537 1964.5,494.5C 1962.36,493.563 1962.02,492.23 1963.5,490.5 Z"/></g>
<g><path style="opacity:0.042" fill="#323331" d="M 259.5,498.5 C 262.861,499.203 263.194,500.537 260.5,502.5C 258.358,501.563 258.024,500.23 259.5,498.5 Z"/></g>
<g><path style="opacity:0.042" fill="#323331" d="M 1955.5,498.5 C 1958.86,499.203 1959.19,500.537 1956.5,502.5C 1954.36,501.563 1954.02,500.23 1955.5,498.5 Z"/></g>
<g><path style="opacity:0.042" fill="#323331" d="M 219.5,506.5 C 222.861,507.203 223.194,508.537 220.5,510.5C 218.358,509.563 218.024,508.23 219.5,506.5 Z"/></g>
<g><path style="opacity:0.042" fill="#323331" d="M 1947.5,506.5 C 1950.86,507.203 1951.19,508.537 1948.5,510.5C 1946.36,509.563 1946.02,508.23 1947.5,506.5 Z"/></g>
<g><path style="opacity:0.042" fill="#323331" d="M 187.5,514.5 C 190.861,515.203 191.194,516.537 188.5,518.5C 186.358,517.563 186.024,516.23 187.5,514.5 Z"/></g>
<g><path style="opacity:0.042" fill="#323331" d="M 1939.5,514.5 C 1942.86,515.203 1943.19,516.537 1940.5,518.5C 1938.36,517.563 1938.02,516.23 1939.5,514.5 Z"/></g>
<g><path style="opacity:0.042" fill="#323331" d="M 139.5,522.5 C 142.861,523.203 143.194,524.537 140.5,526.5C 138.358,525.563 138.024,524.23 139.5,522.5 Z"/></g>
<g><path style="opacity:0.042" fill="#323331" d="M 1931.5,522.5 C 1934.86,523.203 1935.19,524.537 1932.5,526.5C 1930.36,525.563 1930.02,524.23 1931.5,522.5 Z"/></g>
<g><path style="opacity:0.042" fill="#323331" d="M 1923.5,530.5 C 1926.86,531.203 1927.19,532.537 1924.5,534.5C 1922.36,533.563 1922.02,532.23 1923.5,530.5 Z"/></g>
<g><path style="opacity:0.042" fill="#323331" d="M 1915.5,538.5 C 1918.86,539.203 1919.19,540.537 1916.5,542.5C 1914.36,541.563 1914.02,540.23 1915.5,538.5 Z"/></g>
<g><path style="opacity:0.042" fill="#323331" d="M 1899.5,562.5 C 1902.86,563.203 1903.19,564.537 1900.5,566.5C 1898.36,565.563 1898.02,564.23 1899.5,562.5 Z"/></g>
<g><path style="opacity:0.042" fill="#323331" d="M 643.5,570.5 C 646.861,571.203 647.194,572.537 644.5,574.5C 642.358,573.563 642.024,572.23 643.5,570.5 Z"/></g>
<g><path style="opacity:0.042" fill="#323331" d="M 1891.5,570.5 C 1894.86,571.203 1895.19,572.537 1892.5,574.5C 1890.36,573.563 1890.02,572.23 1891.5,570.5 Z"/></g>
<g><path style="opacity:0.042" fill="#323331" d="M 627.5,578.5 C 630.861,579.203 631.194,580.537 628.5,582.5C 626.358,581.563 626.024,580.23 627.5,578.5 Z"/></g>
<g><path style="opacity:0.042" fill="#323331" d="M 1883.5,578.5 C 1886.86,579.203 1887.19,580.537 1884.5,582.5C 1882.36,581.563 1882.02,580.23 1883.5,578.5 Z"/></g>
<g><path style="opacity:0.042" fill="#323331" d="M 611.5,586.5 C 614.861,587.203 615.194,588.537 612.5,590.5C 610.358,589.563 610.024,588.23 611.5,586.5 Z"/></g>
<g><path style="opacity:0.042" fill="#323331" d="M 595.5,594.5 C 598.861,595.203 599.194,596.537 596.5,598.5C 594.358,597.563 594.024,596.23 595.5,594.5 Z"/></g>
<g><path style="opacity:0.042" fill="#323331" d="M 1875.5,594.5 C 1878.86,595.203 1879.19,596.537 1876.5,598.5C 1874.36,597.563 1874.02,596.23 1875.5,594.5 Z"/></g>
<g><path style="opacity:0.042" fill="#323331" d="M 571.5,602.5 C 574.861,603.203 575.194,604.537 572.5,606.5C 570.358,605.563 570.024,604.23 571.5,602.5 Z"/></g>
<g><path style="opacity:0.042" fill="#323331" d="M 1867.5,602.5 C 1870.86,603.203 1871.19,604.537 1868.5,606.5C 1866.36,605.563 1866.02,604.23 1867.5,602.5 Z"/></g>
<g><path style="opacity:0.042" fill="#323331" d="M 555.5,610.5 C 558.861,611.203 559.194,612.537 556.5,614.5C 554.358,613.563 554.024,612.23 555.5,610.5 Z"/></g>
<g><path style="opacity:0.042" fill="#323331" d="M 531.5,618.5 C 534.861,619.203 535.194,620.537 532.5,622.5C 530.358,621.563 530.024,620.23 531.5,618.5 Z"/></g>
<g><path style="opacity:0.042" fill="#323331" d="M 1859.5,618.5 C 1862.86,619.203 1863.19,620.537 1860.5,622.5C 1858.36,621.563 1858.02,620.23 1859.5,618.5 Z"/></g>
<g><path style="opacity:0.042" fill="#323331" d="M 499.5,626.5 C 502.861,627.203 503.194,628.537 500.5,630.5C 498.358,629.563 498.024,628.23 499.5,626.5 Z"/></g>
<g><path style="opacity:0.042" fill="#323331" d="M 1851.5,626.5 C 1854.86,627.203 1855.19,628.537 1852.5,630.5C 1850.36,629.563 1850.02,628.23 1851.5,626.5 Z"/></g>
<g><path style="opacity:0.042" fill="#323331" d="M 483.5,634.5 C 486.861,635.203 487.194,636.537 484.5,638.5C 482.358,637.563 482.024,636.23 483.5,634.5 Z"/></g>
<g><path style="opacity:0.008" fill="#323331" d="M 443.5,642.5 C 444.833,643.167 444.833,643.167 443.5,642.5 Z"/></g>
<g><path style="opacity:0.042" fill="#323331" d="M 1091.5,642.5 C 1094.86,643.203 1095.19,644.537 1092.5,646.5C 1090.36,645.563 1090.02,644.23 1091.5,642.5 Z"/></g>
<g><path style="opacity:0.042" fill="#323331" d="M 1843.5,642.5 C 1846.86,643.203 1847.19,644.537 1844.5,646.5C 1842.36,645.563 1842.02,644.23 1843.5,642.5 Z"/></g>
<g><path style="opacity:0.004" fill="#323331" d="M 443.5,643.5 C 442.833,644.167 442.833,644.167 443.5,643.5 Z"/></g>
<g><path style="opacity:0.042" fill="#323331" d="M 1075.5,650.5 C 1078.86,651.203 1079.19,652.537 1076.5,654.5C 1074.36,653.563 1074.02,652.23 1075.5,650.5 Z"/></g>
<g><path style="opacity:0.042" fill="#323331" d="M 1059.5,658.5 C 1062.86,659.203 1063.19,660.537 1060.5,662.5C 1058.36,661.563 1058.02,660.23 1059.5,658.5 Z"/></g>
<g><path style="opacity:0.042" fill="#323331" d="M 1835.5,658.5 C 1838.86,659.203 1839.19,660.537 1836.5,662.5C 1834.36,661.563 1834.02,660.23 1835.5,658.5 Z"/></g>
<g><path style="opacity:0.042" fill="#323331" d="M 1043.5,666.5 C 1046.86,667.203 1047.19,668.537 1044.5,670.5C 1042.36,669.563 1042.02,668.23 1043.5,666.5 Z"/></g>
<g><path style="opacity:0.042" fill="#323331" d="M 1827.5,666.5 C 1830.86,667.203 1831.19,668.537 1828.5,670.5C 1826.36,669.563 1826.02,668.23 1827.5,666.5 Z"/></g>
<g><path style="opacity:0.042" fill="#323331" d="M 1027.5,674.5 C 1030.86,675.203 1031.19,676.537 1028.5,678.5C 1026.36,677.563 1026.02,676.23 1027.5,674.5 Z"/></g>
<g><path style="opacity:0.042" fill="#323331" d="M 1011.5,682.5 C 1014.86,683.203 1015.19,684.537 1012.5,686.5C 1010.36,685.563 1010.02,684.23 1011.5,682.5 Z"/></g>
<g><path style="opacity:0.042" fill="#323331" d="M 995.5,690.5 C 998.861,691.203 999.194,692.537 996.5,694.5C 994.358,693.563 994.024,692.23 995.5,690.5 Z"/></g>
<g><path style="opacity:0.042" fill="#323331" d="M 971.5,698.5 C 974.861,699.203 975.194,700.537 972.5,702.5C 970.358,701.563 970.024,700.23 971.5,698.5 Z"/></g>
<g><path style="opacity:0.042" fill="#323331" d="M 955.5,706.5 C 958.861,707.203 959.194,708.537 956.5,710.5C 954.358,709.563 954.024,708.23 955.5,706.5 Z"/></g>
<g><path style="opacity:0.042" fill="#323331" d="M 931.5,714.5 C 934.861,715.203 935.194,716.537 932.5,718.5C 930.358,717.563 930.024,716.23 931.5,714.5 Z"/></g>
<g><path style="opacity:0.042" fill="#323331" d="M 907.5,722.5 C 910.861,723.203 911.194,724.537 908.5,726.5C 906.358,725.563 906.024,724.23 907.5,722.5 Z"/></g>
<g><path style="opacity:0.042" fill="#323331" d="M 875.5,730.5 C 878.861,731.203 879.194,732.537 876.5,734.5C 874.358,733.563 874.024,732.23 875.5,730.5 Z"/></g>
<g><path style="opacity:0.042" fill="#323331" d="M 843.5,738.5 C 846.861,739.203 847.194,740.537 844.5,742.5C 842.358,741.563 842.024,740.23 843.5,738.5 Z"/></g>
<g><path style="opacity:0.042" fill="#323331" d="M 803.5,746.5 C 806.861,747.203 807.194,748.537 804.5,750.5C 802.358,749.563 802.024,748.23 803.5,746.5 Z"/></g>
<g><path style="opacity:0.031" fill="#323331" d="M 770.5,760.5 C 771.833,761.167 771.833,761.167 770.5,760.5 Z"/></g>
<g><path style="opacity:0.042" fill="#323331" d="M 2035.5,810.5 C 2038.86,811.203 2039.19,812.537 2036.5,814.5C 2034.36,813.563 2034.02,812.23 2035.5,810.5 Z"/></g>
<g><path style="opacity:0.042" fill="#323331" d="M 2027.5,826.5 C 2030.86,827.203 2031.19,828.537 2028.5,830.5C 2026.36,829.563 2026.02,828.23 2027.5,826.5 Z"/></g>
<g><path style="opacity:0.042" fill="#323331" d="M 2019.5,842.5 C 2022.86,843.203 2023.19,844.537 2020.5,846.5C 2018.36,845.563 2018.02,844.23 2019.5,842.5 Z"/></g>
<g><path style="opacity:0.042" fill="#323331" d="M 2011.5,850.5 C 2014.86,851.203 2015.19,852.537 2012.5,854.5C 2010.36,853.563 2010.02,852.23 2011.5,850.5 Z"/></g>
<g><path style="opacity:0.042" fill="#323331" d="M 1203.5,1082.5 C 1206.86,1083.2 1207.19,1084.54 1204.5,1086.5C 1202.36,1085.56 1202.02,1084.23 1203.5,1082.5 Z"/></g>
<g><path style="opacity:0.038" fill="#323331" d="M 1499.5,1082.5 C 1502.86,1083.2 1503.19,1084.54 1500.5,1086.5C 1498.36,1085.56 1498.02,1084.23 1499.5,1082.5 Z"/></g>
<g><path style="opacity:0.042" fill="#323331" d="M 1195.5,1098.5 C 1198.86,1099.2 1199.19,1100.54 1196.5,1102.5C 1194.36,1101.56 1194.02,1100.23 1195.5,1098.5 Z"/></g>
<g><path style="opacity:0.042" fill="#323331" d="M 1491.5,1098.5 C 1494.86,1099.2 1495.19,1100.54 1492.5,1102.5C 1490.36,1101.56 1490.02,1100.23 1491.5,1098.5 Z"/></g>
<g><path style="opacity:0.042" fill="#323331" d="M 1187.5,1106.5 C 1190.86,1107.2 1191.19,1108.54 1188.5,1110.5C 1186.36,1109.56 1186.02,1108.23 1187.5,1106.5 Z"/></g>
<g><path style="opacity:0.042" fill="#323331" d="M 1483.5,1106.5 C 1486.86,1107.2 1487.19,1108.54 1484.5,1110.5C 1482.36,1109.56 1482.02,1108.23 1483.5,1106.5 Z"/></g>
<g><path style="opacity:0.042" fill="#323331" d="M 1475.5,1114.5 C 1478.86,1115.2 1479.19,1116.54 1476.5,1118.5C 1474.36,1117.56 1474.02,1116.23 1475.5,1114.5 Z"/></g>
<g><path style="opacity:0.042" fill="#323331" d="M 1179.5,1122.5 C 1182.86,1123.2 1183.19,1124.54 1180.5,1126.5C 1178.36,1125.56 1178.02,1124.23 1179.5,1122.5 Z"/></g>
<g><path style="opacity:0.042" fill="#323331" d="M 1467.5,1122.5 C 1470.86,1123.2 1471.19,1124.54 1468.5,1126.5C 1466.36,1125.56 1466.02,1124.23 1467.5,1122.5 Z"/></g>
<g><path style="opacity:0.042" fill="#323331" d="M 1171.5,1130.5 C 1174.86,1131.2 1175.19,1132.54 1172.5,1134.5C 1170.36,1133.56 1170.02,1132.23 1171.5,1130.5 Z"/></g>
<g><path style="opacity:0.042" fill="#323331" d="M 1459.5,1130.5 C 1462.86,1131.2 1463.19,1132.54 1460.5,1134.5C 1458.36,1133.56 1458.02,1132.23 1459.5,1130.5 Z"/></g>
<g><path style="opacity:0.042" fill="#323331" d="M 1163.5,1138.5 C 1166.86,1139.2 1167.19,1140.54 1164.5,1142.5C 1162.36,1141.56 1162.02,1140.23 1163.5,1138.5 Z"/></g>
<g><path style="opacity:0.042" fill="#323331" d="M 1451.5,1138.5 C 1454.86,1139.2 1455.19,1140.54 1452.5,1142.5C 1450.36,1141.56 1450.02,1140.23 1451.5,1138.5 Z"/></g>
<g><path style="opacity:0.042" fill="#323331" d="M 1155.5,1146.5 C 1158.86,1147.2 1159.19,1148.54 1156.5,1150.5C 1154.36,1149.56 1154.02,1148.23 1155.5,1146.5 Z"/></g>
<g><path style="opacity:0.042" fill="#323331" d="M 1443.5,1146.5 C 1446.86,1147.2 1447.19,1148.54 1444.5,1150.5C 1442.36,1149.56 1442.02,1148.23 1443.5,1146.5 Z"/></g>
<g><path style="opacity:0.042" fill="#323331" d="M 1147.5,1154.5 C 1150.86,1155.2 1151.19,1156.54 1148.5,1158.5C 1146.36,1157.56 1146.02,1156.23 1147.5,1154.5 Z"/></g>
<g><path style="opacity:0.042" fill="#323331" d="M 1435.5,1154.5 C 1438.86,1155.2 1439.19,1156.54 1436.5,1158.5C 1434.36,1157.56 1434.02,1156.23 1435.5,1154.5 Z"/></g>
<g><path style="opacity:0.042" fill="#323331" d="M 1139.5,1162.5 C 1142.86,1163.2 1143.19,1164.54 1140.5,1166.5C 1138.36,1165.56 1138.02,1164.23 1139.5,1162.5 Z"/></g>
<g><path style="opacity:0.042" fill="#323331" d="M 1427.5,1162.5 C 1430.86,1163.2 1431.19,1164.54 1428.5,1166.5C 1426.36,1165.56 1426.02,1164.23 1427.5,1162.5 Z"/></g>
<g><path style="opacity:0.042" fill="#323331" d="M 1131.5,1170.5 C 1134.86,1171.2 1135.19,1172.54 1132.5,1174.5C 1130.36,1173.56 1130.02,1172.23 1131.5,1170.5 Z"/></g>
<g><path style="opacity:0.042" fill="#323331" d="M 1419.5,1170.5 C 1422.86,1171.2 1423.19,1172.54 1420.5,1174.5C 1418.36,1173.56 1418.02,1172.23 1419.5,1170.5 Z"/></g>
<g><path style="opacity:0.042" fill="#323331" d="M 1123.5,1178.5 C 1126.86,1179.2 1127.19,1180.54 1124.5,1182.5C 1122.36,1181.56 1122.02,1180.23 1123.5,1178.5 Z"/></g>
<g><path style="opacity:0.042" fill="#323331" d="M 1411.5,1178.5 C 1414.86,1179.2 1415.19,1180.54 1412.5,1182.5C 1410.36,1181.56 1410.02,1180.23 1411.5,1178.5 Z"/></g>
<g><path style="opacity:0.042" fill="#323331" d="M 1115.5,1186.5 C 1118.86,1187.2 1119.19,1188.54 1116.5,1190.5C 1114.36,1189.56 1114.02,1188.23 1115.5,1186.5 Z"/></g>
<g><path style="opacity:0.042" fill="#323331" d="M 1403.5,1186.5 C 1406.86,1187.2 1407.19,1188.54 1404.5,1190.5C 1402.36,1189.56 1402.02,1188.23 1403.5,1186.5 Z"/></g>
<g><path style="opacity:0.042" fill="#323331" d="M 1107.5,1194.5 C 1110.86,1195.2 1111.19,1196.54 1108.5,1198.5C 1106.36,1197.56 1106.02,1196.23 1107.5,1194.5 Z"/></g>
<g><path style="opacity:0.042" fill="#323331" d="M 1395.5,1194.5 C 1398.86,1195.2 1399.19,1196.54 1396.5,1198.5C 1394.36,1197.56 1394.02,1196.23 1395.5,1194.5 Z"/></g>
<g><path style="opacity:0.042" fill="#323331" d="M 1099.5,1202.5 C 1102.86,1203.2 1103.19,1204.54 1100.5,1206.5C 1098.36,1205.56 1098.02,1204.23 1099.5,1202.5 Z"/></g>
<g><path style="opacity:0.042" fill="#323331" d="M 1387.5,1202.5 C 1390.86,1203.2 1391.19,1204.54 1388.5,1206.5C 1386.36,1205.56 1386.02,1204.23 1387.5,1202.5 Z"/></g>
<g><path style="opacity:0.042" fill="#323331" d="M 1091.5,1210.5 C 1094.86,1211.2 1095.19,1212.54 1092.5,1214.5C 1090.36,1213.56 1090.02,1212.23 1091.5,1210.5 Z"/></g>
<g><path style="opacity:0.042" fill="#323331" d="M 1379.5,1210.5 C 1382.86,1211.2 1383.19,1212.54 1380.5,1214.5C 1378.36,1213.56 1378.02,1212.23 1379.5,1210.5 Z"/></g>
<g><path style="opacity:0.042" fill="#323331" d="M 1083.5,1218.5 C 1086.86,1219.2 1087.19,1220.54 1084.5,1222.5C 1082.36,1221.56 1082.02,1220.23 1083.5,1218.5 Z"/></g>
<g><path style="opacity:0.042" fill="#323331" d="M 1371.5,1218.5 C 1374.86,1219.2 1375.19,1220.54 1372.5,1222.5C 1370.36,1221.56 1370.02,1220.23 1371.5,1218.5 Z"/></g>
<g><path style="opacity:0.042" fill="#323331" d="M 1075.5,1226.5 C 1078.86,1227.2 1079.19,1228.54 1076.5,1230.5C 1074.36,1229.56 1074.02,1228.23 1075.5,1226.5 Z"/></g>
<g><path style="opacity:0.042" fill="#323331" d="M 1363.5,1226.5 C 1366.86,1227.2 1367.19,1228.54 1364.5,1230.5C 1362.36,1229.56 1362.02,1228.23 1363.5,1226.5 Z"/></g>
<g><path style="opacity:0.042" fill="#323331" d="M 1067.5,1234.5 C 1070.86,1235.2 1071.19,1236.54 1068.5,1238.5C 1066.36,1237.56 1066.02,1236.23 1067.5,1234.5 Z"/></g>
<g><path style="opacity:0.042" fill="#323331" d="M 1355.5,1234.5 C 1358.86,1235.2 1359.19,1236.54 1356.5,1238.5C 1354.36,1237.56 1354.02,1236.23 1355.5,1234.5 Z"/></g>
<g><path style="opacity:0.042" fill="#323331" d="M 1059.5,1242.5 C 1062.86,1243.2 1063.19,1244.54 1060.5,1246.5C 1058.36,1245.56 1058.02,1244.23 1059.5,1242.5 Z"/></g>
<g><path style="opacity:0.042" fill="#323331" d="M 1051.5,1250.5 C 1054.86,1251.2 1055.19,1252.54 1052.5,1254.5C 1050.36,1253.56 1050.02,1252.23 1051.5,1250.5 Z"/></g>
<g><path style="opacity:0.042" fill="#323331" d="M 1043.5,1258.5 C 1046.86,1259.2 1047.19,1260.54 1044.5,1262.5C 1042.36,1261.56 1042.02,1260.23 1043.5,1258.5 Z"/></g>
<g><path style="opacity:0.042" fill="#323331" d="M 1035.5,1266.5 C 1038.86,1267.2 1039.19,1268.54 1036.5,1270.5C 1034.36,1269.56 1034.02,1268.23 1035.5,1266.5 Z"/></g>
<g><path style="opacity:0.042" fill="#323331" d="M 1027.5,1274.5 C 1030.86,1275.2 1031.19,1276.54 1028.5,1278.5C 1026.36,1277.56 1026.02,1276.23 1027.5,1274.5 Z"/></g>
<g><path style="opacity:0.042" fill="#323331" d="M 1643.5,1282.5 C 1646.86,1283.2 1647.19,1284.54 1644.5,1286.5C 1642.36,1285.56 1642.02,1284.23 1643.5,1282.5 Z"/></g>
<g><path style="opacity:0.042" fill="#323331" d="M 1619.5,1290.5 C 1622.86,1291.2 1623.19,1292.54 1620.5,1294.5C 1618.36,1293.56 1618.02,1292.23 1619.5,1290.5 Z"/></g>
<g><path style="opacity:0.042" fill="#323331" d="M 995.5,1298.5 C 998.861,1299.2 999.194,1300.54 996.5,1302.5C 994.358,1301.56 994.024,1300.23 995.5,1298.5 Z"/></g>
<g><path style="opacity:0.042" fill="#323331" d="M 1587.5,1298.5 C 1590.86,1299.2 1591.19,1300.54 1588.5,1302.5C 1586.36,1301.56 1586.02,1300.23 1587.5,1298.5 Z"/></g>
<g><path style="opacity:0.042" fill="#323331" d="M 987.5,1306.5 C 990.861,1307.2 991.194,1308.54 988.5,1310.5C 986.358,1309.56 986.024,1308.23 987.5,1306.5 Z"/></g>
<g><path style="opacity:0.042" fill="#323331" d="M 1563.5,1306.5 C 1566.86,1307.2 1567.19,1308.54 1564.5,1310.5C 1562.36,1309.56 1562.02,1308.23 1563.5,1306.5 Z"/></g>
<g><path style="opacity:0.042" fill="#323331" d="M 979.5,1314.5 C 982.861,1315.2 983.194,1316.54 980.5,1318.5C 978.358,1317.56 978.024,1316.23 979.5,1314.5 Z"/></g>
<g><path style="opacity:0.042" fill="#323331" d="M 1547.5,1314.5 C 1550.86,1315.2 1551.19,1316.54 1548.5,1318.5C 1546.36,1317.56 1546.02,1316.23 1547.5,1314.5 Z"/></g>
<g><path style="opacity:0.042" fill="#323331" d="M 971.5,1322.5 C 974.861,1323.2 975.194,1324.54 972.5,1326.5C 970.358,1325.56 970.024,1324.23 971.5,1322.5 Z"/></g>
<g><path style="opacity:0.042" fill="#323331" d="M 1531.5,1322.5 C 1534.86,1323.2 1535.19,1324.54 1532.5,1326.5C 1530.36,1325.56 1530.02,1324.23 1531.5,1322.5 Z"/></g>
<g><path style="opacity:0.042" fill="#323331" d="M 963.5,1330.5 C 966.861,1331.2 967.194,1332.54 964.5,1334.5C 962.358,1333.56 962.024,1332.23 963.5,1330.5 Z"/></g>
<g><path style="opacity:0.042" fill="#323331" d="M 1515.5,1330.5 C 1518.86,1331.2 1519.19,1332.54 1516.5,1334.5C 1514.36,1333.56 1514.02,1332.23 1515.5,1330.5 Z"/></g>
<g><path style="opacity:0.042" fill="#323331" d="M 1251.5,1338.5 C 1254.86,1339.2 1255.19,1340.54 1252.5,1342.5C 1250.36,1341.56 1250.02,1340.23 1251.5,1338.5 Z"/></g>
<g><path style="opacity:0.042" fill="#323331" d="M 1243.5,1346.5 C 1246.86,1347.2 1247.19,1348.54 1244.5,1350.5C 1242.36,1349.56 1242.02,1348.23 1243.5,1346.5 Z"/></g>
<g><path style="opacity:0.042" fill="#323331" d="M 1491.5,1346.5 C 1494.86,1347.2 1495.19,1348.54 1492.5,1350.5C 1490.36,1349.56 1490.02,1348.23 1491.5,1346.5 Z"/></g>
<g><path style="opacity:0.042" fill="#323331" d="M 931.5,1354.5 C 934.861,1355.2 935.194,1356.54 932.5,1358.5C 930.358,1357.56 930.024,1356.23 931.5,1354.5 Z"/></g>
<g><path style="opacity:0.042" fill="#323331" d="M 1235.5,1354.5 C 1238.86,1355.2 1239.19,1356.54 1236.5,1358.5C 1234.36,1357.56 1234.02,1356.23 1235.5,1354.5 Z"/></g>
<g><path style="opacity:0.042" fill="#323331" d="M 923.5,1362.5 C 926.861,1363.2 927.194,1364.54 924.5,1366.5C 922.358,1365.56 922.024,1364.23 923.5,1362.5 Z"/></g>
<g><path style="opacity:0.042" fill="#323331" d="M 915.5,1370.5 C 918.861,1371.2 919.194,1372.54 916.5,1374.5C 914.358,1373.56 914.024,1372.23 915.5,1370.5 Z"/></g>
<g><path style="opacity:0.042" fill="#323331" d="M 907.5,1378.5 C 910.861,1379.2 911.194,1380.54 908.5,1382.5C 906.358,1381.56 906.024,1380.23 907.5,1378.5 Z"/></g>
<g><path style="opacity:0.042" fill="#323331" d="M 891.5,1386.5 C 894.861,1387.2 895.194,1388.54 892.5,1390.5C 890.358,1389.56 890.024,1388.23 891.5,1386.5 Z"/></g>
<g><path style="opacity:0.042" fill="#323331" d="M 1211.5,1386.5 C 1214.86,1387.2 1215.19,1388.54 1212.5,1390.5C 1210.36,1389.56 1210.02,1388.23 1211.5,1386.5 Z"/></g>
<g><path style="opacity:0.042" fill="#323331" d="M 883.5,1394.5 C 886.861,1395.2 887.194,1396.54 884.5,1398.5C 882.358,1397.56 882.024,1396.23 883.5,1394.5 Z"/></g>
<g><path style="opacity:0.042" fill="#323331" d="M 1203.5,1394.5 C 1206.86,1395.2 1207.19,1396.54 1204.5,1398.5C 1202.36,1397.56 1202.02,1396.23 1203.5,1394.5 Z"/></g>
<g><path style="opacity:0.042" fill="#323331" d="M 875.5,1402.5 C 878.861,1403.2 879.194,1404.54 876.5,1406.5C 874.358,1405.56 874.024,1404.23 875.5,1402.5 Z"/></g>
<g><path style="opacity:0.042" fill="#323331" d="M 867.5,1410.5 C 870.861,1411.2 871.194,1412.54 868.5,1414.5C 866.358,1413.56 866.024,1412.23 867.5,1410.5 Z"/></g>
<g><path style="opacity:0.042" fill="#323331" d="M 1195.5,1410.5 C 1198.86,1411.2 1199.19,1412.54 1196.5,1414.5C 1194.36,1413.56 1194.02,1412.23 1195.5,1410.5 Z"/></g>
<g><path style="opacity:0.042" fill="#323331" d="M 859.5,1418.5 C 862.861,1419.2 863.194,1420.54 860.5,1422.5C 858.358,1421.56 858.024,1420.23 859.5,1418.5 Z"/></g>
<g><path style="opacity:0.042" fill="#323331" d="M 1187.5,1418.5 C 1190.86,1419.2 1191.19,1420.54 1188.5,1422.5C 1186.36,1421.56 1186.02,1420.23 1187.5,1418.5 Z"/></g>
<g><path style="opacity:0.042" fill="#323331" d="M 851.5,1426.5 C 854.861,1427.2 855.194,1428.54 852.5,1430.5C 850.358,1429.56 850.024,1428.23 851.5,1426.5 Z"/></g>
<g><path style="opacity:0.042" fill="#323331" d="M 843.5,1434.5 C 846.861,1435.2 847.194,1436.54 844.5,1438.5C 842.358,1437.56 842.024,1436.23 843.5,1434.5 Z"/></g>
<g><path style="opacity:0.042" fill="#323331" d="M 1179.5,1434.5 C 1182.86,1435.2 1183.19,1436.54 1180.5,1438.5C 1178.36,1437.56 1178.02,1436.23 1179.5,1434.5 Z"/></g>
<g><path style="opacity:0.042" fill="#323331" d="M 835.5,1442.5 C 838.861,1443.2 839.194,1444.54 836.5,1446.5C 834.358,1445.56 834.024,1444.23 835.5,1442.5 Z"/></g>
<g><path style="opacity:0.042" fill="#323331" d="M 827.5,1450.5 C 830.861,1451.2 831.194,1452.54 828.5,1454.5C 826.358,1453.56 826.024,1452.23 827.5,1450.5 Z"/></g>
<g><path style="opacity:0.042" fill="#323331" d="M 1171.5,1450.5 C 1174.86,1451.2 1175.19,1452.54 1172.5,1454.5C 1170.36,1453.56 1170.02,1452.23 1171.5,1450.5 Z"/></g>
<g><path style="opacity:0.042" fill="#323331" d="M 819.5,1458.5 C 822.861,1459.2 823.194,1460.54 820.5,1462.5C 818.358,1461.56 818.024,1460.23 819.5,1458.5 Z"/></g>
<g><path style="opacity:0.042" fill="#323331" d="M 1163.5,1458.5 C 1166.86,1459.2 1167.19,1460.54 1164.5,1462.5C 1162.36,1461.56 1162.02,1460.23 1163.5,1458.5 Z"/></g>
<g><path style="opacity:0.042" fill="#323331" d="M 811.5,1466.5 C 814.861,1467.2 815.194,1468.54 812.5,1470.5C 810.358,1469.56 810.024,1468.23 811.5,1466.5 Z"/></g>
<g><path style="opacity:0.042" fill="#323331" d="M 803.5,1474.5 C 806.861,1475.2 807.194,1476.54 804.5,1478.5C 802.358,1477.56 802.024,1476.23 803.5,1474.5 Z"/></g>
<g><path style="opacity:0.042" fill="#323331" d="M 795.5,1482.5 C 798.861,1483.2 799.194,1484.54 796.5,1486.5C 794.358,1485.56 794.024,1484.23 795.5,1482.5 Z"/></g>
<g><path style="opacity:0.042" fill="#323331" d="M 1155.5,1482.5 C 1158.86,1483.2 1159.19,1484.54 1156.5,1486.5C 1154.36,1485.56 1154.02,1484.23 1155.5,1482.5 Z"/></g>
<g><path style="opacity:0.042" fill="#323331" d="M 787.5,1490.5 C 790.861,1491.2 791.194,1492.54 788.5,1494.5C 786.358,1493.56 786.024,1492.23 787.5,1490.5 Z"/></g>
<g><path style="opacity:0.042" fill="#323331" d="M 779.5,1498.5 C 782.861,1499.2 783.194,1500.54 780.5,1502.5C 778.358,1501.56 778.024,1500.23 779.5,1498.5 Z"/></g>
<g><path style="opacity:0.042" fill="#323331" d="M 1147.5,1498.5 C 1150.86,1499.2 1151.19,1500.54 1148.5,1502.5C 1146.36,1501.56 1146.02,1500.23 1147.5,1498.5 Z"/></g>
<g><path style="opacity:0.042" fill="#323331" d="M 771.5,1506.5 C 774.861,1507.2 775.194,1508.54 772.5,1510.5C 770.358,1509.56 770.024,1508.23 771.5,1506.5 Z"/></g>
<g><path style="opacity:0.042" fill="#323331" d="M 763.5,1514.5 C 766.861,1515.2 767.194,1516.54 764.5,1518.5C 762.358,1517.56 762.024,1516.23 763.5,1514.5 Z"/></g>
<g><path style="opacity:0.042" fill="#323331" d="M 1139.5,1514.5 C 1142.86,1515.2 1143.19,1516.54 1140.5,1518.5C 1138.36,1517.56 1138.02,1516.23 1139.5,1514.5 Z"/></g>
<g><path style="opacity:0.042" fill="#323331" d="M 755.5,1522.5 C 758.861,1523.2 759.194,1524.54 756.5,1526.5C 754.358,1525.56 754.024,1524.23 755.5,1522.5 Z"/></g>
<g><path style="opacity:0.042" fill="#323331" d="M 747.5,1530.5 C 750.861,1531.2 751.194,1532.54 748.5,1534.5C 746.358,1533.56 746.024,1532.23 747.5,1530.5 Z"/></g>
<g><path style="opacity:0.042" fill="#323331" d="M 1955.5,1530.5 C 1958.86,1531.2 1959.19,1532.54 1956.5,1534.5C 1954.36,1533.56 1954.02,1532.23 1955.5,1530.5 Z"/></g>
<g><path style="opacity:0.042" fill="#323331" d="M 739.5,1538.5 C 742.861,1539.2 743.194,1540.54 740.5,1542.5C 738.358,1541.56 738.024,1540.23 739.5,1538.5 Z"/></g>
<g><path style="opacity:0.042" fill="#323331" d="M 1131.5,1546.5 C 1134.86,1547.2 1135.19,1548.54 1132.5,1550.5C 1130.36,1549.56 1130.02,1548.23 1131.5,1546.5 Z"/></g>
<g><path style="opacity:0.042" fill="#323331" d="M 731.5,1554.5 C 734.861,1555.2 735.194,1556.54 732.5,1558.5C 730.358,1557.56 730.024,1556.23 731.5,1554.5 Z"/></g>
<g><path style="opacity:0.042" fill="#323331" d="M 723.5,1562.5 C 726.861,1563.2 727.194,1564.54 724.5,1566.5C 722.358,1565.56 722.024,1564.23 723.5,1562.5 Z"/></g>
<g><path style="opacity:0.042" fill="#323331" d="M 1123.5,1562.5 C 1126.86,1563.2 1127.19,1564.54 1124.5,1566.5C 1122.36,1565.56 1122.02,1564.23 1123.5,1562.5 Z"/></g>
<g><path style="opacity:0.042" fill="#323331" d="M 1947.5,1562.5 C 1950.86,1563.2 1951.19,1564.54 1948.5,1566.5C 1946.36,1565.56 1946.02,1564.23 1947.5,1562.5 Z"/></g>
<g><path style="opacity:0.042" fill="#323331" d="M 715.5,1578.5 C 718.861,1579.2 719.194,1580.54 716.5,1582.5C 714.358,1581.56 714.024,1580.23 715.5,1578.5 Z"/></g>
<g><path style="opacity:0.042" fill="#323331" d="M 707.5,1586.5 C 710.861,1587.2 711.194,1588.54 708.5,1590.5C 706.358,1589.56 706.024,1588.23 707.5,1586.5 Z"/></g>
<g><path style="opacity:0.042" fill="#323331" d="M 1115.5,1594.5 C 1118.86,1595.2 1119.19,1596.54 1116.5,1598.5C 1114.36,1597.56 1114.02,1596.23 1115.5,1594.5 Z"/></g>
<g><path style="opacity:0.042" fill="#323331" d="M 699.5,1602.5 C 702.861,1603.2 703.194,1604.54 700.5,1606.5C 698.358,1605.56 698.024,1604.23 699.5,1602.5 Z"/></g>
<g><path style="opacity:0.042" fill="#323331" d="M 635.5,1618.5 C 638.861,1619.2 639.194,1620.54 636.5,1622.5C 634.358,1621.56 634.024,1620.23 635.5,1618.5 Z"/></g>
<g><path style="opacity:0.042" fill="#323331" d="M 691.5,1618.5 C 694.861,1619.2 695.194,1620.54 692.5,1622.5C 690.358,1621.56 690.024,1620.23 691.5,1618.5 Z"/></g>
<g><path style="opacity:0.01" fill="#323331" d="M 1923.5,1626.5 C 1924.71,1627.5 1924.55,1628.5 1923,1629.5C 1922.53,1628.42 1922.7,1627.42 1923.5,1626.5 Z"/></g>
<g><path style="opacity:0.042" fill="#323331" d="M 627.5,1634.5 C 630.861,1635.2 631.194,1636.54 628.5,1638.5C 626.358,1637.56 626.024,1636.23 627.5,1634.5 Z"/></g>
<g><path style="opacity:0.042" fill="#323331" d="M 683.5,1634.5 C 686.861,1635.2 687.194,1636.54 684.5,1638.5C 682.358,1637.56 682.024,1636.23 683.5,1634.5 Z"/></g>
<g><path style="opacity:0.042" fill="#323331" d="M 1107.5,1634.5 C 1110.86,1635.2 1111.19,1636.54 1108.5,1638.5C 1106.36,1637.56 1106.02,1636.23 1107.5,1634.5 Z"/></g>
<g><path style="opacity:0.034" fill="#323331" d="M 619.5,1650.5 C 622.861,1651.2 623.194,1652.54 620.5,1654.5C 618.824,1653.27 618.491,1651.94 619.5,1650.5 Z"/></g>
<g><path style="opacity:0.042" fill="#323331" d="M 675.5,1650.5 C 678.861,1651.2 679.194,1652.54 676.5,1654.5C 674.358,1653.56 674.024,1652.23 675.5,1650.5 Z"/></g>
<g><path style="opacity:0.042" fill="#323331" d="M 667.5,1666.5 C 670.861,1667.2 671.194,1668.54 668.5,1670.5C 666.358,1669.56 666.024,1668.23 667.5,1666.5 Z"/></g>
<g><path style="opacity:0.042" fill="#323331" d="M 1099.5,1698.5 C 1102.86,1699.2 1103.19,1700.54 1100.5,1702.5C 1098.36,1701.56 1098.02,1700.23 1099.5,1698.5 Z"/></g>
<g><path style="opacity:0.042" fill="#323331" d="M 1779.5,1858.5 C 1782.86,1859.2 1783.19,1860.54 1780.5,1862.5C 1778.36,1861.56 1778.02,1860.23 1779.5,1858.5 Z"/></g>
<g><path style="opacity:0.042" fill="#323331" d="M 1747.5,1866.5 C 1750.86,1867.2 1751.19,1868.54 1748.5,1870.5C 1746.36,1869.56 1746.02,1868.23 1747.5,1866.5 Z"/></g>
<g><path style="opacity:0.042" fill="#323331" d="M 1715.5,1874.5 C 1718.86,1875.2 1719.19,1876.54 1716.5,1878.5C 1714.36,1877.56 1714.02,1876.23 1715.5,1874.5 Z"/></g>
<g><path style="opacity:0.042" fill="#323331" d="M 1683.5,1882.5 C 1686.86,1883.2 1687.19,1884.54 1684.5,1886.5C 1682.36,1885.56 1682.02,1884.23 1683.5,1882.5 Z"/></g>
<g><path style="opacity:0.042" fill="#323331" d="M 1643.5,1890.5 C 1646.86,1891.2 1647.19,1892.54 1644.5,1894.5C 1642.36,1893.56 1642.02,1892.23 1643.5,1890.5 Z"/></g>
<g><path style="opacity:0.042" fill="#323331" d="M 2475.5,1890.5 C 2478.86,1891.2 2479.19,1892.54 2476.5,1894.5C 2474.36,1893.56 2474.02,1892.23 2475.5,1890.5 Z"/></g>
<g><path style="opacity:0.042" fill="#323331" d="M 2459.5,1898.5 C 2462.86,1899.2 2463.19,1900.54 2460.5,1902.5C 2458.36,1901.56 2458.02,1900.23 2459.5,1898.5 Z"/></g>
<g><path style="opacity:0.042" fill="#323331" d="M 2443.5,1906.5 C 2446.86,1907.2 2447.19,1908.54 2444.5,1910.5C 2442.36,1909.56 2442.02,1908.23 2443.5,1906.5 Z"/></g>
<g><path style="opacity:0.042" fill="#323331" d="M 2035.5,1914.5 C 2038.86,1915.2 2039.19,1916.54 2036.5,1918.5C 2034.36,1917.56 2034.02,1916.23 2035.5,1914.5 Z"/></g>
<g><path style="opacity:0.042" fill="#323331" d="M 2427.5,1914.5 C 2430.86,1915.2 2431.19,1916.54 2428.5,1918.5C 2426.36,1917.56 2426.02,1916.23 2427.5,1914.5 Z"/></g>
<g><path style="opacity:0.042" fill="#323331" d="M 2019.5,1922.5 C 2022.86,1923.2 2023.19,1924.54 2020.5,1926.5C 2018.36,1925.56 2018.02,1924.23 2019.5,1922.5 Z"/></g>
<g><path style="opacity:0.042" fill="#323331" d="M 1987.5,1954.5 C 1990.86,1955.2 1991.19,1956.54 1988.5,1958.5C 1986.36,1957.56 1986.02,1956.23 1987.5,1954.5 Z"/></g>
<g><path style="opacity:0.042" fill="#323331" d="M 1979.5,1962.5 C 1982.86,1963.2 1983.19,1964.54 1980.5,1966.5C 1978.36,1965.56 1978.02,1964.23 1979.5,1962.5 Z"/></g>
</svg>
